<svg xmlns="http://www.w3.org/2000/svg" xmlns:xlink="http://www.w3.org/1999/xlink" viewBox="0 0 200 200"><defs><path id="a" d="M0 2.9h200V197H0z"/></defs><clipPath id="b"><use xlink:href="#a" overflow="visible"/></clipPath><path clip-path="url(#b)" d="M189.7 120c2.6 2.5 3.6 6.4 2.4 9.9-12.7 38.8-49.2 66.9-92.1 66.9-33.3 0-63.7-16.8-81.5-44.5-.8-1.2-2.2-1.8-3.6-1.4L4 154c-2.4.7-4.6-1.5-4-3.9l9.4-37.5 1.9-7.4c.6-2.4 3.6-3.2 5.3-1.5l9.2 8.9L50 135.9c1.8 1.7 1 4.7-1.3 5.4l-12.1 3.4c14.4 20.4 37.9 32.8 63.4 32.8 34.4 0 63.7-22.5 73.9-53.6 2.2-6.8 10.6-9.1 15.7-4.1l.1.2zm-6.9-70.6C165.2 20.6 134.1 2.9 100 2.9 57 2.9 20.5 31 7.9 69.8c-1.1 3.5-.2 7.3 2.4 9.9l.2.2c5.1 5 13.5 2.7 15.7-4.1C36.3 44.7 65.5 22.2 100 22.2c25.5 0 48.9 12.3 63.4 32.7l-12.1 3.4c-2.4.7-3.1 3.7-1.3 5.4L174.1 87l9.2 8.9c1.8 1.7 4.7.9 5.3-1.5l1.9-7.4 9.4-37.6c.6-2.4-1.6-4.5-4-3.9l-13.1 3.9zm-30.9 50.4c0 28.6-23.2 51.9-51.9 51.9-28.6 0-51.9-23.2-51.9-51.9C48.1 71.2 71.3 48 100 48c28.6 0 51.9 23.2 51.9 51.8zm-7.5 17.2"/></svg>