<svg xmlns="http://www.w3.org/2000/svg" xmlns:xlink="http://www.w3.org/1999/xlink" viewBox="0 0 200 200"><defs><path id="a" d="M6.5 0h185.7v199.8H6.5z"/></defs><clipPath id="b"><use xlink:href="#a" overflow="visible"/></clipPath><path clip-path="url(#b)" d="M167.8 53.6c.4-1.8.7-3.7.7-5.6v-6c0-11.9-8.9-22.9-25.1-30.7C128.4 4 108.6 0 87.5 0c-21 0-40.9 4-55.9 11.3C15.4 19.1 6.5 30.1 6.5 42v6c0 11.8 8.7 22.6 24.4 30.4-.4 1.8-.7 4.1-.7 5.6v1c-15.3 7.8-23.7 18.5-23.7 30v6c0 8.1 4.1 15.6 11.7 22.1-1 2.8-1.6 5.6-1.6 8.5v6c0 11.9 8.9 22.9 25.1 30.7 15 7.3 34.8 11.3 55.9 11.3 21 0 40.9-4 55.9-11.3 16.2-7.9 25.1-18.8 25.1-30.7v-6c0-8.1-4.1-15.6-11.7-22.1 1-2.8 1.6-5.6 1.6-8.5v-1c15.3-7.8 23.7-18.5 23.7-30.1v-6c0-11.7-8.7-22.5-24.4-30.3zm-150-16.7c2.3-6 8.7-11.8 18.3-16.4C49.8 13.9 68 10.2 87.5 10.2s37.7 3.7 51.3 10.3c9.6 4.7 16 10.4 18.3 16.4-8.3 14.4-37.1 24.9-69.7 24.9S26.1 51.3 17.8 36.9zm0 73.1c1.9-4.8 6.5-9.6 13.3-13.7 2.6 9.4 11 17.9 24.2 24.3 15 7.3 34.8 11.3 55.9 11.3 2.1 0 4.1-.1 6.1-.1-9.2 2-19.3 3.1-29.8 3.1-32.6 0-61.4-10.5-69.7-24.9zm149.4 36.6c-8.3 14.4-37.1 24.9-69.7 24.9-28.3 0-53.7-7.9-65.4-19.5 14.9 7.1 34.5 11 55.3 11 21 0 40.9-4 55.9-11.3 7.8-3.8 13.9-8.3 18.1-13.2 2.8 2.6 4.8 5.4 5.8 8.1zm-56-42.8c-28.5 0-54-8-65.5-19.6C58.1 88 72.5 90 87.5 90c21 0 40.9-4 55.9-11.3 9.1-4.4 15.9-9.8 20.1-15.8 9.1 4.6 15.1 10.2 17.4 16-8.3 14.4-37.1 24.9-69.7 24.9zm0 0"/></svg>