<svg xmlns="http://www.w3.org/2000/svg" viewBox="0 0 200 200"><path d="M103.7 123.2l-5.4-12c5.2-3.8 9.6-8.5 13.1-13.9l12.3 4.7c2.4.9 5-.3 5.9-2.7l4.5-12c.4-1.1.4-2.4-.1-3.5s-1.4-2-2.5-2.4l-12.3-4.7c1-6.3.8-12.8-.6-19.1l12-5.4c1.1-.5 2-1.4 2.4-2.5.4-1.1.4-2.4-.1-3.5l-5.3-11.7c-1-2.3-3.7-3.3-6-2.3l-12 5.4c-3.8-5.2-8.5-9.6-13.9-13.1l4.7-12.3c.9-2.4-.3-5-2.7-5.9l-12-4.5c-1.1-.4-2.4-.4-3.5.1s-2 1.4-2.4 2.5l-4.7 12.3c-6.3-1-12.8-.8-19.1.6l-5.4-12c-.5-1.1-1.4-2-2.5-2.4-1.1-.4-2.4-.4-3.5.1L33 8.5c-2.3 1-3.3 3.7-2.3 6l5.4 12C30.9 30.3 26.5 35 23 40.4l-12.3-4.7c-1.1-.4-2.4-.4-3.5.1s-2 1.4-2.4 2.5l-4.5 12c-.9 2.4.3 5 2.6 5.9l12.3 4.7c-1 6.3-.8 12.8.6 19.1l-12 5.4c-1.1.5-2 1.4-2.4 2.5s-.4 2.4.1 3.5l5.3 11.7c.5 1.1 1.4 2 2.5 2.4 1.1.4 2.4.4 3.5-.1l12-5.4c3.8 5.2 8.5 9.6 13.9 13.1L34 125.4c-.9 2.4.3 5 2.7 5.9l12 4.5c.5.2 1.1.3 1.6.3.6 0 1.3-.1 1.9-.4 1.1-.5 2-1.4 2.4-2.5l4.7-12.3c6.3 1 12.8.8 19.1-.6l5.4 12c.5 1.1 1.4 2 2.5 2.4 1.1.4 2.4.4 3.5-.1l11.7-5.3c2.2-1.1 3.2-3.8 2.2-6.1zm-7.6-43.4c-4.5 12-16.2 20-29 20-3.7 0-7.4-.7-11-2-7.7-2.9-13.9-8.7-17.3-16.2-3.4-7.5-3.7-15.9-.7-23.7 4.5-12 16.2-20 29-20 3.7 0 7.4.7 11 2 7.7 2.9 13.9 8.7 17.3 16.2 3.4 7.6 3.7 16 .7 23.7zm102.6 63.4c-.8-.9-2-1.4-3.2-1.5l-8.6-.4c-.8-4.1-2.2-8-4.2-11.6l6.3-5.8c1.9-1.7 2-4.6.3-6.5l-6.3-6.9c-.8-.9-2-1.4-3.2-1.5-1.2 0-2.4.4-3.3 1.2l-6.3 5.8c-3.4-2.3-7.2-4.1-11.2-5.2l.4-8.6c.1-2.5-1.9-4.6-4.4-4.8l-9.3-.4c-2.5-.1-4.6 1.8-4.8 4.4l-.4 8.6c-4.1.8-8 2.2-11.6 4.2l-5.8-6.3c-.8-.9-2-1.4-3.2-1.5-1.2 0-2.4.4-3.3 1.2l-6.9 6.3c-1.9 1.7-2 4.6-.3 6.5l5.8 6.3c-2.3 3.4-4.1 7.2-5.2 11.2l-8.6-.4c-2.5-.1-4.7 1.8-4.8 4.4l-.4 9.3c0 1.2.4 2.4 1.2 3.3.8.9 2 1.4 3.2 1.5l8.6.4c.8 4.1 2.2 8 4.2 11.6l-6.3 5.8c-.9.8-1.4 2-1.5 3.2-.1 1.2.4 2.4 1.2 3.3l6.3 6.9c.8.9 2 1.4 3.2 1.5 1.2 0 2.4-.4 3.3-1.2l6.3-5.8c3.4 2.3 7.2 4.1 11.2 5.2l-.4 8.6c-.1 2.5 1.8 4.6 4.4 4.8l9.3.4h.2c1.1 0 2.2-.4 3.1-1.2.9-.8 1.4-2 1.5-3.2l.4-8.6c4.1-.8 8-2.2 11.6-4.2l5.8 6.3c.8.9 2 1.4 3.2 1.5 1.2.1 2.4-.4 3.3-1.2l6.9-6.3c1.9-1.7 2-4.6.3-6.4l-5.8-6.3c2.3-3.4 4.1-7.2 5.2-11.2l8.6.4c2.5.1 4.6-1.8 4.8-4.4l.4-9.3c0-1.4-.4-2.5-1.2-3.4zm-51.5 27c-11.7-.5-20.9-10.5-20.4-22.2.5-11.4 9.8-20.4 21.2-20.4h.9c11.7.5 20.9 10.5 20.4 22.2-.4 11.7-10.2 20.8-22.1 20.4zm0 0"/></svg>