<svg xmlns="http://www.w3.org/2000/svg" xmlns:xlink="http://www.w3.org/1999/xlink" viewBox="0 0 200 200"><defs><path id="a" d="M.4 0h203v203.7H.4z"/></defs><clipPath id="b"><use xlink:href="#a" overflow="visible"/></clipPath><path clip-path="url(#b)" d="M83 144.4c.1 0 .2.1 0 0zm-.3-.3c-.3 0 .1.2.3.3-.1-.2-.2-.3-.3-.3zm22.6-52.9l.1.1c0-.1-.1-.1-.1-.1zm31.2 47.8c.7.1 1.7 0 2.3 0h.2c.7 0 1.3-.3 2.4-.9h.1l-2.7-.3c-.9-.1-1.8-.3-2.6-.4.6.5 1.1.9.9 1-.5.2-1.4.6-.6.6zm-4.4-44.1l-.1-.1c-.3 1.4-.7 2.8-1 4.2.2.2.1.2 1.1.2 1.4.1.4.1 1.5.1s1.2.1 1.4-.3c.2-.4.2.2.2-.9 0-1.2-.5-1.7-.9-2-.4-.2-1.1-.7-2.2-1.2zm-6.1 22.6l-.3 1.1.5-.1s.1.3.3.8c.1-.3.2-.5.2-.5s0-.3-.2-1c-.1-.1-.3-.2-.5-.3zm3.1-10.6h-.1l-.2.6c-.6 2.3-1.3 4.6-1.9 7 .5 0 1 .1 1 .1s.6-.3.8-1c.2-.8.6-1.6.6-1.6s.1 0 .4.1c.2-.3.4-.7.4-1.3 0-1.1-.5-1.3-.5-1.9 0-.6.2-2 .2-2h-.7zm15.1 31.5c-.5 1.2-1 2.5-1.3 3-.7 1.1-2.5 3.5-3.5 4.4-.1.1-.3.2-.5.4-1.5 1.2-4.9 3.8-5.7 4.4-.9.7-5 4.2-5.5 4.6-.5.4-1.3 1.7-1.3 1.7l-.7 1 .3.8s-.6.7-.8 1.4c0 .1-.1.2-.2.3-5.4 2.2-11 3.7-16.7 4.4-1.1 2.3-2.2 4.5-3.3 6.7 10.7-.7 21.4-3.8 31.2-9.5 9.9-5.7 17.9-13.4 23.8-22.3-2.4-.1-4.8-.3-7.2-.4-2.9-.3-5.7-.6-8.6-.9zm55.7-11.9c-3.2 11.9-37.7 13.3-81.6 4.5-14.4 42.4-32.9 71.6-44.7 68.4-7.5-2-10.8-16.5-10-37.9.3.1.5.3.8.4-10.5-6.1-19.7-14.9-26.2-26.2-5.7-9.9-8.8-20.6-9.5-31.2 2.1 1.1 4.2 2.1 6.4 3.2 7.7 3.7 15.7 7 23.9 10v.4l-1.2 2.1-1.1.7.3.5.2 1h-.6v2.2c0 .8 1.6 1.1 1.6 1.1l-.5.3s.1.5.6 1.3.9 1.5 1.1 2.2c.2.7.5 2.7.5 2.7s1.3 2.2 1.9 3c.6.9 1.8 2.1 2.3 3.1.5 1 1.6.5 3.6 1 2.1.5 3 1.2 3 1.2s1.1.9 1.8 1.3 1.4.4 3.3.4c1.8 0 .6.1 2.8.4h.3c2.6.4.5.2 3 1.3h.1c.6.3.9.4 1.1.5.2.5.1 1.3.2 1.7.1.5.8-.1 1.3-.1.4 0 .5.3.9.6.1.1.3.2.5.2.9.3 1.1-.3 1.1-.3l1 1.2.8 1.1-.8 1.9-.7.7s.1-.9 0-1.6c-.1-.7-.7.3-.7.3l-.6 1.9 2.2 2.1.7.6 1.4 1.3.1.3.8 2.3-.1.8.5 1.3s-.6.3-1.2.4c-.2 0-.4.1-.6.1-.3 0-.6.3-.9.7-.3.4-.5.8-.5.8s.2.4.5.9c.2.3.5.6.7.8.1.1.3.2.4.3.1 0 .2 0 .3.1 0 0 0 .1-.1.1l-.3.5c-.8 1.5-1.9 3.3-3.2 5.2-7.2-1.4-14.2-3.9-20.7-7.4.2 12.9 2.6 21.3 7.4 22.6 9 2.4 23.5-21.5 35.6-56.5-5.1-1.1-10.2-2.4-15.4-3.8C38.7 110.8-2.9 87.4.9 73.4c2-7.5 16.5-10.8 37.9-10-.3.4-.5.9-.7 1.3 6.1-10.8 15-20.1 26.5-26.7 11.2-7 23.7-10 36-10h-1.3C109.4 9.1 119.5-1.8 127 .2c14 3.8 13.5 51.4-1.3 106.4-1.4 5.2-2.9 10.3-4.4 15.2 36.3 7.1 64.3 6.4 66.7-2.5 1.3-4.7-4.8-11-15.9-17.7v-.1c-.2 7.4-1.5 14.8-3.9 21.7-2.3.1-4.4.1-6.1.1H159c-1.8-.1-3.7-.2-5.6-.3.3-1.2.6-2 .7-2.5.1-.6.4-1.5.4-1.5l-2.2-.5-.3-1.5-.9-.2-.8 1.6s-.7 1-1.5 1.4c-.8.4-1.8.5-1.8.5l.2-1.2c-.4-.2-1.3.2-1.3.2l-.1-1.1s-.5-1.1-.9-1.2c-.4-.1-1.1-1-1.1-1s-.3-.3-.5-1l-.1-.1.1-.6s.8-.9 1.5-1.7c.7-.8.9.8 1.6 1.3.7.6.5 1.5.5 1.5s.4.2 1 .2.8.4.8.4l1.1.5 1.1-1.3s.2-.8 1-.8.1 1 .1 1.6c0 .6.6 0 2.1-.7 1.6-.7.9-.6 2.4-1.3 1.5-.8.7-.6 1.2-1 .6-.5 1-.9 1-.9l1.2.8 1.4-.2 1.4-.8v1s-.9 1.1-.3 1.9c.6.8.7.6.3 1.6-.3 1-.1 1 0 1.6.1.4.1.5.1.7 5.1-16.8 3.6-35.5-5.9-51.8-4.5-7.8-10.4-14.4-17.2-19.5.2-2.5.3-5 .4-7.5 8.9 5.9 16.6 14 22.3 23.8 6.5 11.3 9.6 23.7 9.6 36v-1c19 10.2 29.9 20.3 27.9 27.8zm-86.1-78.1s.7-.4 1.1-.5c.3-.2 0-.2-.4-.5-.3-.3-.8.2-.8.2s-.2.2-.4.7c0 0 0 .1-.1.1-.2.2-.4-.4-.5-.7 0-.3-1.4-.1-1.3-.1.1 0 .3.7.3.7s.1.6.1.9c0 .3 0 .7.2 1 .2.3.8.8.8.8l.4-.3.2-.1.6-1 .5-.5-.7-.7zm-8-4.5s.1-.7.5-.6c.4.1.8-1 .8-1s-.3-.6-.7-.6c-.4 0-1.3.1-1.3.1l-.2-.5s-.5-.1-1.1.2c-.6.2-.8-.3-.8-.3l-.1-1-.9.2-.6-.6s-.2-.5.2-.5 1 .1 1 .1l.8-.6-.3-.6.5-.6s-1.1-.6-1.3-.2c-.2.4-1.1.7-1.1.7s.1-.2-.4-.9c-.5-.6.2-1-.8-.7-.6.1-1.1.4-1.4.7l-.3.3s-1.1.2-1.2.6c-.1.4 1.3.6 1.3.6l.2-.2c.2-.2.6-.5.9-.3.4.4.7.9.7.9l-1.5.8-.3.1-.7-.6h-1.5l-.7.3-1.5.2s.2.7.2 1.1c0 .4-.6.8-.6.8l-.9-.1h-.1l-.9.6s-1 .1-1.3.4c-.1 0-.1.1-.2.1-.4.1-.7-.2-.7.4 0 .6.1.9-.4 1-.1 0-.2 0-.4.1-.5.1-1.1.2-1.1.2s-.5.2-.9.6c-.4.4-1.3.6-1.3.6h-.1l-1.5-.3-2.1.9v.1l-.4 1-1.3.3s-1.1.6-1.2 1c0 .2-.3.4-.5.5-.2.1-.3.2-.3.2s-.8.3-1.2.6c-.4.3-.9 1-.9 1l-.3.7.6.8-1.3.2.2.6c.6.6 1 1 1.4.6.4-.3.2-.5.6-.7.3-.1.8-.3 1.2-.4.3-.1.6-.2.8-.3.4-.2 1-.7 1.5-.7s1-.1 1-.1l.2-.1 1.1-.9 1.3.6 1-.2s0 .3.2.5c.1.1.2.1.3.2.5.2 1.2.2 1.2.2s.4-.6.9-.6h1.4l.2-.7.9.4.1.1.7.6s-.3.1.5.4c.5.2.9.1 1.2 0 .2-.1.3-.1.3-.1l1.4.3s.1-1.3-.3-1.3-1.2-.4-1.2-.4l.9-.3 1-.2.2 1 1.5-.5-.2-.9.1-1.4 1.4.2.1 1 .6.2c.3.1.7.1.7-.2 0-.6-.3-1 .1-1s1.2-.2 1.2-.2l.4-.6.6-1.3.6 1 .9-.5-.2-.8 1.9-.9s1.1-.2 1.6-.2.6-.2.6-.2.3-.6-.2-.6c-.6 0-1-.4-1-.4zm-19 30.7l-.8.4 1.8.9.9.1h.7s.5-.8.5-1.6c0-.4.1-.5.3-.7.2-.1.4-.2.8-.5.6-.5.5-.6.3-1.1-.1-.3-.8-.3-1.1-.3H90l-1.3.7h-.1l-.6-.6-.9.2-.8.9c-.1-.1.6.1.6.1s.2-.1.9 0c.6.1-.2.6-.2.6l-1.3.3.5.6zm3-18.5l-1.1.1s-.2 1.1 0 1.8v.1c.2.4.7.9 1.5 1 .3 0 .7 0 1.1-.1.7-.2.9-.2 1-.2h-.1.1l.5-.2.6-.3s1-.6 1-1.2c0-.5-.9-.4-1.6-.4h-.1c-.7 0-.6-.1-.9-.9-.3-.8-.3.5-.3.5s-.3-.1-.6-.8c-.3-.7-.4-1.3-.4-1.3l-.3.2-.8.6.2.5.2.6zM89 78.8s.3.4.8 1c.2.3.3.2.4 0 .1-.2.2-.6.5-.6.4 0 .1.6.5.5.5-.1 1.5-.1 1.5-.1l.7.8s.8-.4.9-.8c.1-.4.1-.4.7-.4s.4-.1 1.2-.7c.8-.6-.2-1.2-.9-1.5-.6-.3-.1-.9-.1-.9l.1-1.1s0-.4-.1-.9c-.1-.6-.2-1-.3-1.5-.1-.6-.6-.4-.6-.4v-.7s1.2 0 1.6-.2c.4-.2 0-1 0-1s-.9-.3-1.6-.5c-.7-.2-.2-.4.9-.5 1.2-.1.2-.6.2-.6l-.9-.6s-.5.6-1.3 1c-.2.1-.3.1-.4.2-.3.3-.1.6-.4 1v.6l.4.6.2.3s-.1.3-.2.7c-.1.2-.2.4-.3.5-.3.5.2 1 .2 1s0 1-.2 1.6c-.2.6-1.4-.5-1.4-.5l-.2 1.4h-1.1l.2.7.3.2.5.3.5.7-.9-.3-.6-.1-.8.8zM76.6 43.1l-1.4 1.4s1.2.2 1.6.2c.2 0 .9-.5 1.5-.9.5-.3 1-.7 1.3-.9.9-.5 1.2-.4 1.2-.4l.3.6-1.9 1.1 2.2-.3.3-.3.9-.8.9-1 1.3.1.5-.2 1.2-.4s.9-.6 1.3-1.4c.3-.6.5-.2.9-.2h.4c.6-.2.3-.7.3-1.3 0-.3.4-.3.8-.3.5 0 1 0 1.3-.1.5-.3-.4-.9-1-1.1l-.2-.1c-.5-.1-.8-.2-.8-.7 0-.3-.3-.4-.7-.4-.3 0-.7.1-.9.3-.5.3-1.4.4-1.1-.2 0-.1.1-.1.2-.2-2.5.5-4.9 1.2-7.3 2h1.2c.5 0-.5.6-.5.6s-1.4.5-1.8.8c-.6.5-.5 1-.5 1h.2c.3 0 .7 0 1-.1.4-.1.7-.2 1.7-.9.3-.2.5-.3.7-.4.3-.1.3-.1.7-.3.6-.3.2.9.2.9l1.5-.6 1.2-.1h.4l.5-.9-.9-.2-.5-.1.5-.5c.2 0 1.6 0 2 .1.5.1 0 .6 0 .6l-.2.6-.6 1s-.7.1-1.3.1c-.5 0-1.1.6-1.1.6l-1.1.8h-1.6l-.2.9-1.2.1s-.2-.4-.2-1c-.1-.6-.6 0-.6 0s-.2.9-.8 1.3c-.1.1-.2.1-.4.2-.8.2-1.4 1-1.4 1zm17.3-8.4c-.7.1-1.4.1-2 .2.1 0 .2.1.4.1.5.1.1.2.1.6 0 .3.1.4.5.4.2 0 .5.1.9.1 1.1.2.4-.3.2-1.3-.1 0-.1 0-.1-.1zm-4.5.6c.2.1.2.3.2.3l.2-.4c-.2.1-.3.1-.4.1zm9.3-.9c-.1.2-.2.4-.1.6.1.7.2 0 .7-.2.3-.1.3-.2.4-.5-.4.1-.7.1-1 .1zm-46.5 21l1 .1 1.3-.8 1.3.4-.8.3s-.7 1-.9 1.5c-.2.5 1.9.4 1.9.4s.6-1.5.6-2.1c0-.6 1.7-1 1.7-1l.5-1.3.8.5s.5-.9.4-1.3c-.1-.4-1.5-.5-1.5-.5l1.4-.7 1.4.4-.3 2.8h1.4l.3.5s-2 1.1-2.4 1.1c-.4 0-1.3 1-1.3 1l-.8.9s.3.5.9.6c.7.2.7.5.7.5s.9-.3.9-.8-.3-.6-.3-.6.7-.8 1.2-1.4c.5-.6 3-1.7 3.5-2.2.5-.6.2-1 .2-1l1.2-.7s.3-1.5.5-1.9c.2-.4 1.8-1.2 3-2.1 1.2-.9 1.4-1 2.9-1.3 1.6-.4.5-.6.4-1-.1-.5-1.4.6-1.4.6l-1.9-.4s.8 0 1.6-.6.6-.2 1.2-.4c.5-.2.4-.5.4-.5h.9s.7-.7 1.1-1.3c.4-.6 1.3-1.8 1.3-1.8s-2 1.1-2.4 1.3c-.4.2-1-.2-1.5-.2s-1.2.8-2 1.1c-.8.3-1.7.8-1.7.8l-1.2-.3-1 .4-2.3 1s.4-.3 1.4-.9c.9-.5 1.9-1.1 1.9-1.1l1.5-.4.1-.8c-.6.3-1.2.6-1.8 1-5.8 3.3-10.9 7.5-15.3 12.2zm59.7 64.5c1.6-5.1 3.1-10.3 4.6-15.7 12.8-47.9 14.3-89 3.3-92-4.7-1.3-11 4.8-17.7 15.9h-.2c7.5.2 14.8 1.5 21.8 3.9.1 2.3.1 4.4.1 6.1v3.1c-.2 6-.8 12.2-1.6 18.4-.3-.1-.6-.2-.9-.2-.9-.1-.9 0-.9 0s-.7-.6-1-1c-.3-.5-.8-.8-1.8-1.1-1-.3-.9.4-.9.4s-.9.7-2.1.5c-1.1-.1-1.4 1.2-1.5 1.2l-.8.7s-.5.8-1 .8-.9.1-.9.1-.3 1-.3 1.5-.5.6-.5.6-.7.1-1.1.3c-.5.2-.9.5-1.4.7-.5.3-.3.5-1.2 1-.9.5-1.3.7-1.3.7l-1.2.3.7.7-1 .2s-.1.6.1 1.1c.1.5 1.1.5 1.1.5s-.6.5-1.4.9c-.8.3-.8.5-.7.8.1.3.5 1.1 1.8 1.4 1.3.3.4-.1 1-.4.6-.3 1.2-.5 1.2-.5s.8 1.3.8 1.9c0 .6-.2 1.7-.1 2.1.1.4.7-.1.7-.1l-.6.7s.1 1.2.1 1.5c0 .3 1.2.1 1.2-.2 0-.3.6-.9 1.6-.9 1-.1.9-.2.9-1s.2-1.8.2-1.8l1.1-.3s.6-.5 1-.9l.3-.3c.1-.2 0-.4-.3-.6-.2-.2-.4-.3-.6-.5-.3-.3-.5-1.4-.5-2 0-.7 0-.4.1-.8s.6-.5 1-.6h.1c.5-.1 1.1-.9 1.9-1.3.9-.4-.5-.5-.5-.5s.1-.7.3-1.3c.1-.6 1.8.2 1.8.2l.7.8-.8.6-.9 1.4-1.3 1.7 1.1 2.7s.9.5 1.5.4c.6-.1 1.3-.4 1.6-.7.2-.2 1-.4 1.9-.6l-.3 1.8c-.3.1-.6-.1-1.4-.1-1 0-1.3.5-2.2.6-.9.1-.4.7-.4 1.2s1.3 1 1.3 1l-1 .7s-.5-1-1.4-.9c-.9.1-.6 1.3-1.1 1.8-.6.5.4 1.9.4 1.9s-.7.1-1.3.4c-.1.1-.1.1-.2.1-.7.5-.8.1-.8.1s-.4-.6-.8-.6c-.5 0-1.1.7-1.6.9-.5.2-2 0-2 0l-1-1.1-.9.8s-.7-.2-1.2-.7c-.5-.6 0-.5-.1-.9-.1-.5-.3-.5-.3-.5l.5-.8L106 75s.3-1.7-.3-2.4c-.6-.8-.6.7-.6.7l-1.9 1.2.1 2.5-.4 1.1-.7-.2-.5.6s-.5-.3-1.2-.6-2 .9-2 .9l-.2.4-.3.7-1-.2-.6.6h-1.1c-.5 0-.2.8-.2.8s-.3.4-.7.5l-.2-.2c-.5-.1-.7 0-1 .3-.1.1-.4.2-.6.3-.3.1-.5.1-.5.1l-.3-1.1s-.3-.6-.7-.1c-.3.5-.2.8-.2.8l.1.8-.7.1-.2-.1-.3-.1-1.2-.7-.2-.1s-.8-.1-.7.4c.1.6.8 1.2.8 1.5v.1c.2.2 1.2.2 1.2.6 0 .5-.6 1-.6 1s.5.4.5 1-.1 1.5-.3 1.9c-.1.4-.5.3-.6.7 0 .1-.1.2-.2.3-.2.3-.5.7-.5.7s-1 .3-1.4.1c-.3-.1-.6-.6-1.2-.8h-.3c-.3 0-.3.2-.9-.3-.8-.5-1.1-.7-1.6-.9-.5-.2-.8-.7-.8-.7s-.1-.1-.2-.1c-.2-.1-.6-.3-.8-.3-.3 0-.9.6-.9.6s.1.5 0 1.2.1 1-.3 1.3c-.4.3-.5.1-.5.6-.1.5.3.3-.3.8-.5.5-.3.5-.6.7 0 0-.1 0-.1.1-.6.3-.8.3-1.1.8-.3.5-.5 1.2-.5 1.6 0 .5 1.5 2.2 1.5 2.2s.1 0 .2.1c.3.1.6.2.6.6 0 .5-.5.7 0 1 .5.3.3.4.6.6.2.1 1.2.3 2.2.5l2.2.4.8-.6H86l.3-1.2 1-.1.1-1.1s-.1-1.1.2-1.1c.2 0 .7-.3 1.1-.6.5-.3.9-.6.9-.6s.3.1.6.1c.5.1 1.2.1 1.4 0 .3-.3 1.1-1.4 1.1-1.4s-.2-.9 0-1.2c0-.1.1-.2.2-.2.5 0 1.8.1 2.2.5.4.4 1.4 1 1.8.9.4 0 .9-.4 1.3-.7l.2-.1c.1-.1.5-.4 1-.7s.9.1 1.2.6c.3.5.4 1.4.3 1.9-.1.6.9 1 1.2 1.4.3.4 2 2.6 2.5 3.2.5.7 1.6 1.9 1.6 1.9l.5 1.3-1.2.8s-1.2-.1-1.6-.2c-.4-.1-.7.3-.7.3s-.3-.1-.9-.7c-.6-.6-.2.1-1 .5-.7.4 1 1 1.4 1.4.4.3 1 .9 1.2 1.3.3.3 1-.1 1-.7 0-.5.1-1 .1-1h1.2l.8-.9.6-.5.3-.8-.5-1.3s.8-.3 1.2-.3.7 1 .7 1l.3.1s0-.8-.2-1.1c-.2-.3-1.3-1.2-1.3-1.2s-1.2-.5-1.6-.8c-.3-.3-1.2-1.7-1.6-2.4-.4-.8-.1-.8-.2-1.2-.1-.3-.7-.8-1-1.2-.3-.5-.2-1.2-.2-1.2s.6-.4 1.3-.8c.2-.1.3-.3.4-.3.3.3 1 1.1 1 1.6 0 .6.3 1.3.4 1.7.1.4.9.8 2 1 1.1.2.8.9.8.9s1 1.2 1.2 2c.1.8.1 1.2.2 2.2.1 1 .6 1.2.9 2.1.3.9.5.9.7 1.7.1.3.2.7.3 1l-2.1 7.5c-.6.6-1.1 2.7-1.1 2.7s-.2.1-.5.2l-1.4-.3c-.7-.8-2.4-1.1-3.2-1.7-.9-.6-.9-1.9-1.6-2.4-.7-.6-1.2-.3-1.2-.3s-2-.4-2.4-.9c-.2-.3-.6-.7-.8-1-.3-.3-.4-.5-.4-.5l.4-.4c.3-.3.7-.5.9-.6.5-.1-.2-1.1-.8-2.1-.6-1 1.6-1.3 1.5-1.8-.1-.5-1-.5-1.6-.8-.6-.3-2 0-2 0l-1.9-.4s-.6.2-1.1.4c-.2.1-.4 0-.7-.1-.4-.2-.9-.6-1.1-1.1-.3-.6-.8-.4-1.4-.5-.3 0-.5-.1-.8-.2-.3-.2-.5-.2-.7-.2-.4 0-.8.2-1.3.3-.7.1-1.5.3-2.1.4H85c-.5 0-1.1.4-1.8.8s-.9-1.1-.9-1.1-.2 0-.6-.1c-.4-.1-1-.2-1.8-.5-1.5-.6-.8-1.5-.8-1.5s-.3.2-.8.7c-.2.2-.4.3-.7.6-1 .9-1.3 1.3-2.2 1.2-.9-.1-1.4.3-2 .6-.6.3-1.8 2.4-1.9 2.7-11.8-4-23.4-8.8-33.9-14.4-.4-.3-1.2-.7-2.1-1.2-.1-.1-.2-.1-.3-.2-.1 0-.2-.1-.3-.2-1.5-.8-3.3-1.9-5.2-3.2 1.4-7.3 4-14.4 7.6-20.9-.1.1-.1.2-.2.2-12.9.2-21.3 2.6-22.6 7.4-2.9 11 33.5 30.3 81.4 43.1 5.5 2.1 10.8 3.4 16 4.6zM97.3 99.6c-.3.1-.3.9-.3.9s.3.3.6.4c.2.1.5 0 .8 0 .2 0 .3-.1.6-.2.7-.2.3-.5.4-1 .1-.5.1-1.1.4-1.5.3-.5-.5-.8-.5-.8l-.8 1.2v.1c-.3.3-.9.8-1.2.9zm1.1-3.5c.3-.1 1.1-.3 1.3-.7.2-.5.1-.3.3-.9.2-.6-.5.2-.5.2l-.9.5-.2.5-.2.3c.1.1.1.1.2.1zm0 0"/></svg>