<svg xmlns="http://www.w3.org/2000/svg" viewBox="0 0 200 200"><path d="M197.6 106c-.3 13.4-12.3-19.8-48.7-38.1-36.3-18.5-67.7-3.1-61.1-6.8 5.3-3.2 39.7-24 69.6-14.4 30.5 8 41 47.1 40.2 59.3z"/><path d="M119.3 199.4c-12.9 3.9 15-17.8 21.2-58.1 6.4-40.2-18-65.3-12.4-60.3 4.7 4.1 35 30.3 35.2 61.7 1.9 31.6-32.1 53.6-44 56.7z"/><path d="M6.4 153.8c-7.7-11 21.6 8.8 61.8 2.2 40.2-6.4 56.6-37.3 53.5-30.4-2.4 5.7-18 42.7-47.8 52.6-29.5 11.4-61-14.1-67.5-24.4z"/><path d="M14.8 32.3c8.1-10.7-1.7 23.3 17 59.4 18.5 36.3 53 42.3 45.5 41.5-6.2-.6-46.2-3.9-64.8-29.3-20-24.4-5.5-62.2 2.3-71.6z"/><path d="M133 2.7c12.7 4.4-22.6 5.6-51.3 34.5-28.8 28.8-23.8 63.4-25.4 56-1.4-6.1-10.5-45.1 7.8-70.6C81.2-3.9 121.6-1.8 133 2.7z"/></svg>